<svg width="64" height="16" viewBox="0 0 64 16" fill="none" xmlns="http://www.w3.org/2000/svg">
<path d="M41.0918 12.6081V3.39209H44.0648C44.5157 3.39209 44.8815 3.40916 45.1622 3.44329C45.881 3.52862 46.4998 3.78249 47.0187 4.20489C47.5419 4.62729 47.9396 5.16916 48.2118 5.83049C48.484 6.48756 48.6201 7.21076 48.6201 8.00009C48.6201 8.78942 48.484 9.51476 48.2118 10.1761C47.9396 10.8332 47.5419 11.3729 47.0187 11.7953C46.4998 12.2177 45.881 12.4716 45.1622 12.5569C44.8815 12.591 44.5157 12.6081 44.0648 12.6081H41.0918ZM44.0648 10.9697C44.5157 10.9697 44.8474 10.9484 45.0601 10.9057C45.4429 10.8289 45.7619 10.6476 46.0171 10.3617C46.2765 10.0716 46.4679 9.72169 46.5913 9.31209C46.7189 8.89822 46.7827 8.46089 46.7827 8.00009C46.7827 7.52649 46.7167 7.08276 46.5849 6.66889C46.4573 6.25502 46.2638 5.90729 46.0043 5.62569C45.7491 5.34409 45.4344 5.16702 45.0601 5.09449C44.8474 5.05182 44.5157 5.03049 44.0648 5.03049H42.8527V10.9697H44.0648Z" fill="#273852"/>
<path d="M34.0547 12.6081H32.3193V3.39209H34.0547V12.6081Z" fill="#273852"/>
<path d="M25.3305 12.6078H19.6396V3.39185H21.375V10.9822H25.3305V12.6078Z" fill="#273852"/>
<path d="M59.0469 12.8C58.141 12.8 57.352 12.6016 56.68 12.2048C56.008 11.8037 55.4912 11.2405 55.1297 10.5152C54.7724 9.78982 54.5938 8.95142 54.5938 7.99995C54.5938 7.04848 54.7724 6.21008 55.1297 5.48475C55.4912 4.75942 56.008 4.19835 56.68 3.80155C57.352 3.40048 58.141 3.19995 59.0469 3.19995C59.9529 3.19995 60.7419 3.40048 61.4139 3.80155C62.0859 4.19835 62.6005 4.75942 62.9578 5.48475C63.3193 6.21008 63.5001 7.04848 63.5001 7.99995C63.5001 8.95142 63.3193 9.78982 62.9578 10.5152C62.6005 11.2405 62.0859 11.8037 61.4139 12.2048C60.7419 12.6016 59.9529 12.8 59.0469 12.8ZM59.098 11.1616C59.6594 11.1616 60.1315 11.0314 60.5143 10.7712C60.8971 10.5109 61.1842 10.144 61.3756 9.67035C61.567 9.19675 61.6627 8.63995 61.6627 7.99995C61.6627 7.01008 61.4373 6.23568 60.9864 5.67675C60.5356 5.11782 59.8721 4.83835 58.9959 4.83835C58.4345 4.83835 57.9623 4.96848 57.5795 5.22875C57.1968 5.48902 56.9097 5.85595 56.7183 6.32955C56.5269 6.80315 56.4312 7.35995 56.4312 7.99995C56.4312 8.98982 56.6566 9.76422 57.1074 10.3232C57.5583 10.8821 58.2218 11.1616 59.098 11.1616Z" fill="#273852"/>
<path fill-rule="evenodd" clip-rule="evenodd" d="M6.08767 0L10.0349 6.19817L6.08746 8.5059L2.14048 6.1981L6.08767 0ZM3.3488 5.90501L6.08767 1.60428L8.82655 5.90503L6.08749 7.50632L3.3488 5.90501Z" fill="#00A3FF"/>
<path d="M6.08183 9.86825L1.50292 7.19097L1.37788 7.38732C-0.0324125 9.60184 0.282554 12.5021 2.13513 14.3601C4.31516 16.5466 7.84968 16.5466 10.0297 14.3601C11.8823 12.5021 12.1973 9.60184 10.787 7.38732L10.6619 7.19092L6.08183 9.86825Z" fill="#00A3FF"/>
</svg>
