<svg width="248" height="61" viewBox="0 0 248 61" fill="none" xmlns="http://www.w3.org/2000/svg">
<g clip-path="url(#clip0_26607_7)">
<mask id="mask0_26607_7" style="mask-type:luminance" maskUnits="userSpaceOnUse" x="0" y="0" width="248" height="61">
<path d="M248 0H0V61H248V0Z" fill="white"/>
</mask>
<g mask="url(#mask0_26607_7)">
<path d="M137.211 52.7173C133.077 52.7173 129.466 51.7686 126.378 49.8715C123.307 47.9974 120.793 45.2673 119.115 41.9851C117.364 38.6235 116.49 34.7363 116.49 30.3233C116.49 25.9103 117.364 22.0236 119.115 18.6632C120.792 15.3814 123.304 12.651 126.373 10.7751C129.462 8.87904 133.074 7.93045 137.206 7.92938C141.299 7.92938 144.9 8.87797 148.01 10.7751C151.089 12.6394 153.604 15.3727 155.271 18.6632C157.003 22.0247 157.869 25.9114 157.87 30.3233C157.871 34.7353 157.004 38.6225 155.271 41.9851C153.604 45.2753 151.089 48.0082 148.01 49.8715C144.905 51.7686 141.305 52.7173 137.211 52.7173ZM137.211 45.6028C141.145 45.6028 144.285 44.2419 146.628 41.5203C148.971 38.7986 150.142 35.0663 150.142 30.3233C150.142 25.5814 148.971 21.849 146.628 19.1264C144.286 16.4036 141.147 15.0428 137.211 15.0439C133.275 15.0439 130.127 16.4047 127.764 19.1264C125.402 21.848 124.221 25.5803 124.222 30.3233C124.222 35.0663 125.403 38.7986 127.764 41.5203C130.126 44.2419 133.274 45.6028 137.211 45.6028Z" fill="#33474D"/>
<path d="M180.053 52.7172C177.849 52.7172 175.92 52.2843 174.267 51.4184C172.651 50.5857 171.267 49.3283 170.252 47.7689L169.426 51.9755H162.696V7.43433H170.252V25.6837C171.274 24.2497 172.546 23.0322 174.001 22.0962C175.556 21.0649 177.573 20.5492 180.053 20.5492C182.808 20.5492 185.268 21.2505 187.433 22.6533C189.601 24.0602 191.373 26.0453 192.569 28.4054C193.828 30.8384 194.457 33.6014 194.458 36.6945C194.459 39.7875 193.829 42.5404 192.569 44.9533C191.372 47.2962 189.6 49.2613 187.435 50.6449C185.268 52.0264 182.807 52.7172 180.053 52.7172ZM178.459 45.7889C180.859 45.7889 182.847 44.9432 184.423 43.2519C185.999 41.5605 186.785 39.3748 186.783 36.6945C186.783 34.0142 185.996 31.8082 184.423 30.0766C182.849 28.3449 180.861 27.4785 178.459 27.4775C176.018 27.4775 174.02 28.3332 172.467 30.0447C170.914 31.7562 170.137 33.9526 170.135 36.634C170.135 39.3143 170.912 41.5102 172.467 43.2216C174.022 44.9332 176.019 45.7889 178.459 45.7889Z" fill="#33474D"/>
<path d="M213.084 52.7173C210.248 52.7173 207.7 52.0365 205.439 50.6752C203.193 49.3325 201.336 47.3765 200.066 45.0154C198.75 42.6026 198.092 39.8088 198.092 36.634C198.092 33.4593 198.761 30.665 200.099 28.251C201.385 25.8929 203.251 23.9386 205.501 22.5913C207.764 21.2299 210.312 20.5493 213.146 20.5493C215.941 20.5493 218.472 21.2299 220.741 22.5913C222.987 23.935 224.843 25.8908 226.113 28.251C227.43 30.6639 228.088 33.4583 228.088 36.634C228.088 39.8098 227.43 42.6036 226.113 45.0154C224.835 47.3837 222.963 49.3408 220.7 50.6752C218.417 52.0376 215.879 52.7183 213.084 52.7173ZM213.084 45.8511C215.052 45.8511 216.765 45.0775 218.221 43.5305C219.677 41.9834 220.405 39.6846 220.405 36.634C220.405 33.5813 219.677 31.282 218.221 29.736C216.765 28.19 215.073 27.4165 213.143 27.4155C211.136 27.4155 209.414 28.1889 207.979 29.736C206.543 31.283 205.825 33.5824 205.825 36.634C205.825 39.6857 206.543 41.9845 207.979 43.5305C209.414 45.0764 211.116 45.85 213.084 45.8511Z" fill="#33474D"/>
<path d="M232.699 51.9755V7.43433H240.256V51.9755H232.699Z" fill="#33474D"/>
<path d="M72.4659 61.0003C65.2342 61.0003 57.8521 58.1258 50.4412 52.4056C44.8788 48.121 40.3721 44.2629 36.394 40.8585L36.0249 40.5401L33.9105 42.6252C27.6114 48.8324 22.4956 52.6794 16.4563 52.6794C7.68891 52.6825 0 45.1733 0 36.6073C0 27.5352 8.27065 20.4843 15.3869 20.4843C22.8298 20.4843 28.535 24.0972 35.6315 29.9194C45.5775 20.1453 55.4628 10.6753 62.9497 5.46112C72.5601 -1.23159 87.3348 -2.88686 96.9742 6.89357C107.91 17.9887 103.881 39.3481 96.4224 48.6065C93.6386 52.0618 87.6386 58.1736 78.7284 60.2634C76.6733 60.7502 74.573 60.9974 72.4659 61.0003ZM41.648 35.0061C45.453 38.2626 49.7576 41.9313 54.9737 45.9516C61.6678 51.11 67.5612 52.9658 72.5722 52.9658C81.5556 52.9658 87.7021 47.0053 90.5766 43.4384C98.6358 33.4352 96.7843 17.8709 91.6515 12.6616C84.1239 5.02183 72.8973 8.16526 67.1875 12.1411C60.3766 16.8841 51.0913 25.7366 41.648 35.0061ZM15.3869 28.506C11.9784 28.506 7.65397 32.3259 7.65397 36.6089C7.65397 40.7471 11.9314 44.6672 16.4533 44.6672C19.4911 44.6672 22.9118 42.4581 28.6625 36.7904L29.9885 35.4836C24.4733 31.0462 20.2384 28.506 15.3869 28.506Z" fill="#2FE4AB"/>
<path opacity="0.92" d="M28.6623 36.79C22.9116 42.4577 19.4879 44.6669 16.453 44.6669C15.7062 44.6644 14.9628 44.5606 14.2415 44.3581V52.523C14.9743 52.6291 15.7133 52.6822 16.453 52.6822C22.4923 52.6822 27.6082 48.8353 33.9072 42.628L36.0216 40.5431L29.9884 35.4786L28.6623 36.79Z" fill="url(#paint0_linear_26607_7)"/>
<g opacity="0.92">
<path opacity="0.92" d="M35.6318 29.9222L41.6483 35.0074C45.9287 30.804 50.1773 26.6897 54.1781 23.0019L48.7586 17.3183C44.5329 21.2209 40.0899 25.539 35.6318 29.9222Z" fill="url(#paint1_linear_26607_7)"/>
</g>
</g>
</g>
<defs>
<linearGradient id="paint0_linear_26607_7" x1="31.0607" y1="36.2409" x2="18.3863" y2="48.3352" gradientUnits="userSpaceOnUse">
<stop stop-color="#0F7C76"/>
<stop offset="1" stop-color="#2FE4AB"/>
</linearGradient>
<linearGradient id="paint1_linear_26607_7" x1="38.9644" y1="32.6868" x2="51.4704" y2="20.7503" gradientUnits="userSpaceOnUse">
<stop stop-color="#0F7C76"/>
<stop offset="1" stop-color="#2FE4AB"/>
</linearGradient>
<clipPath id="clip0_26607_7">
<rect width="248" height="61" fill="white"/>
</clipPath>
</defs>
</svg>
