<svg width="164" height="21" viewBox="0 0 164 21" fill="none" xmlns="http://www.w3.org/2000/svg">
<path d="M4.64252 15.0002V5.82016H8.43564C8.52489 5.82016 8.63964 5.82441 8.77989 5.83291C8.92014 5.83716 9.04977 5.84991 9.16877 5.87116C9.70002 5.95191 10.1378 6.12828 10.482 6.40028C10.8305 6.67228 11.0876 7.01653 11.2534 7.43303C11.4234 7.84528 11.5084 8.30428 11.5084 8.81003C11.5084 9.31153 11.4234 9.77053 11.2534 10.187C11.0834 10.5993 10.8241 10.9414 10.4756 11.2134C10.1314 11.4854 9.69577 11.6618 9.16877 11.7425C9.04977 11.7595 8.91802 11.7723 8.77352 11.7808C8.63327 11.7893 8.52064 11.7935 8.43564 11.7935H6.17889V15.0002H4.64252ZM6.17889 10.3592H8.37189C8.45689 10.3592 8.55252 10.3549 8.65877 10.3464C8.76502 10.3379 8.86277 10.3209 8.95202 10.2954C9.20702 10.2317 9.40677 10.119 9.55127 9.95753C9.70002 9.79603 9.80414 9.61328 9.86364 9.40928C9.92739 9.20528 9.95927 9.00553 9.95927 8.81003C9.95927 8.61453 9.92739 8.41478 9.86364 8.21078C9.80414 8.00253 9.70002 7.81766 9.55127 7.65616C9.40677 7.49466 9.20702 7.38203 8.95202 7.31828C8.86277 7.29278 8.76502 7.27791 8.65877 7.27366C8.55252 7.26516 8.45689 7.26091 8.37189 7.26091H6.17889V10.3592Z" fill="#273852"/>
<path d="M16.923 15.1914C16.005 15.1914 15.2187 14.9917 14.5642 14.5922C13.9097 14.1884 13.4061 13.6274 13.0533 12.9092C12.7048 12.1909 12.5306 11.3579 12.5306 10.4102C12.5306 9.46241 12.7048 8.62941 13.0533 7.91116C13.4061 7.19291 13.9097 6.63403 14.5642 6.23453C15.2187 5.83078 16.005 5.62891 16.923 5.62891C17.841 5.62891 18.6272 5.83078 19.2817 6.23453C19.9405 6.63403 20.4441 7.19291 20.7926 7.91116C21.1453 8.62941 21.3217 9.46241 21.3217 10.4102C21.3217 11.3579 21.1453 12.1909 20.7926 12.9092C20.4441 13.6274 19.9405 14.1884 19.2817 14.5922C18.6272 14.9917 17.841 15.1914 16.923 15.1914ZM16.923 13.7443C17.5392 13.7485 18.0513 13.6125 18.4593 13.3363C18.8716 13.06 19.1797 12.6712 19.3837 12.1697C19.592 11.6682 19.6961 11.0817 19.6961 10.4102C19.6961 9.73866 19.592 9.15641 19.3837 8.66341C19.1797 8.16616 18.8716 7.77941 18.4593 7.50316C18.0513 7.22691 17.5392 7.08453 16.923 7.07603C16.3067 7.07178 15.7946 7.20778 15.3866 7.48403C14.9786 7.76028 14.6705 8.14916 14.4622 8.65066C14.2582 9.15216 14.1562 9.73866 14.1562 10.4102C14.1562 11.0817 14.2582 11.666 14.4622 12.1633C14.6662 12.6563 14.9722 13.0409 15.3802 13.3172C15.7925 13.5934 16.3067 13.7358 16.923 13.7443Z" fill="#273852"/>
<path d="M24.3976 15.0002L21.7138 5.82016H23.3266L25.1563 12.4502L26.9795 5.83291L28.5924 5.82016L30.422 12.4502L32.2453 5.82016H33.8581L31.1806 15.0002H29.6634L27.7828 8.47216L25.9149 15.0002H24.3976Z" fill="#273852"/>
<path d="M35.1534 15.0002V5.82016H41.0821V7.26091H36.6897V9.52403H40.3171V10.9648H36.6897V13.5594H41.0821V15.0002H35.1534Z" fill="#273852"/>
<path d="M42.8666 15.0002V5.82016H46.6597C46.749 5.82016 46.8637 5.82441 47.004 5.83291C47.1442 5.83716 47.2739 5.84991 47.3929 5.87116C47.9241 5.95191 48.3619 6.12828 48.7061 6.40028C49.0546 6.67228 49.3117 7.01653 49.4775 7.43303C49.6475 7.84528 49.7325 8.30428 49.7325 8.81003C49.7325 9.55803 49.5434 10.2019 49.1651 10.7417C48.7869 11.2772 48.2067 11.6087 47.4247 11.7362L46.7681 11.7935H44.403V15.0002H42.8666ZM48.1387 15.0002L46.3282 11.2644L47.8901 10.9202L49.8791 15.0002H48.1387ZM44.403 10.3592H46.596C46.681 10.3592 46.7766 10.3549 46.8829 10.3464C46.9891 10.3379 47.0869 10.3209 47.1761 10.2954C47.4311 10.2317 47.6309 10.119 47.7754 9.95753C47.9241 9.79603 48.0282 9.61328 48.0877 9.40928C48.1515 9.20528 48.1834 9.00553 48.1834 8.81003C48.1834 8.61453 48.1515 8.41478 48.0877 8.21078C48.0282 8.00253 47.9241 7.81766 47.7754 7.65616C47.6309 7.49466 47.4311 7.38203 47.1761 7.31828C47.0869 7.29278 46.9891 7.27791 46.8829 7.27366C46.7766 7.26516 46.681 7.26091 46.596 7.26091H44.403V10.3592Z" fill="#273852"/>
<path d="M51.5386 15.0002V5.82016H57.4674V7.26091H53.075V9.52403H56.7024V10.9648H53.075V13.5594H57.4674V15.0002H51.5386Z" fill="#273852"/>
<path d="M59.2519 15.0002V5.82016H62.178C62.2545 5.82016 62.4054 5.82228 62.6306 5.82653C62.8601 5.83078 63.0811 5.84566 63.2936 5.87116C64.0204 5.96466 64.6345 6.22391 65.136 6.64891C65.6417 7.06966 66.0242 7.60728 66.2835 8.26178C66.5427 8.91628 66.6724 9.63241 66.6724 10.4102C66.6724 11.1879 66.5427 11.904 66.2835 12.5585C66.0242 13.213 65.6417 13.7528 65.136 14.1778C64.6345 14.5985 64.0204 14.8557 63.2936 14.9492C63.0854 14.9747 62.8665 14.9895 62.637 14.9938C62.4075 14.998 62.2545 15.0002 62.178 15.0002H59.2519ZM60.8137 13.553H62.178C62.3055 13.553 62.467 13.5488 62.6625 13.5403C62.8622 13.5318 63.0386 13.5127 63.1916 13.4829C63.6251 13.4022 63.9779 13.2088 64.2499 12.9028C64.5219 12.5968 64.7216 12.2249 64.8491 11.7872C64.9809 11.3494 65.0467 10.8904 65.0467 10.4102C65.0467 9.91291 64.9809 9.44541 64.8491 9.00766C64.7174 8.56991 64.5134 8.20228 64.2371 7.90478C63.9651 7.60728 63.6166 7.41816 63.1916 7.33741C63.0386 7.30341 62.8622 7.28428 62.6625 7.28003C62.467 7.27153 62.3055 7.26728 62.178 7.26728H60.8137V13.553Z" fill="#273852"/>
<path d="M71.2418 15.0002V5.82016H74.882C75.5025 5.82016 76.0103 5.94553 76.4056 6.19628C76.8051 6.44278 77.1005 6.75941 77.2917 7.14616C77.4872 7.53291 77.585 7.93241 77.585 8.34466C77.585 8.85041 77.4638 9.27966 77.2216 9.63241C76.9836 9.98516 76.6585 10.2232 76.2462 10.3464V10.0277C76.8242 10.1594 77.262 10.4335 77.5595 10.85C77.8612 11.2665 78.0121 11.7404 78.0121 12.2717C78.0121 12.8157 77.908 13.2917 77.6997 13.6997C77.4915 14.1077 77.1812 14.4264 76.769 14.6559C76.361 14.8854 75.8552 15.0002 75.2517 15.0002H71.2418ZM72.7973 13.553H75.0605C75.3282 13.553 75.5683 13.4999 75.7808 13.3937C75.9933 13.2832 76.1591 13.1302 76.2781 12.9347C76.4013 12.7349 76.463 12.499 76.463 12.227C76.463 11.9805 76.4098 11.7595 76.3036 11.564C76.1973 11.3685 76.0422 11.2134 75.8382 11.0987C75.6342 10.9797 75.3898 10.9202 75.1051 10.9202H72.7973V13.553ZM72.7973 9.48578H74.8628C75.0838 9.48578 75.2815 9.44328 75.4557 9.35828C75.63 9.27328 75.7681 9.14791 75.8701 8.98216C75.9721 8.81641 76.0231 8.61241 76.0231 8.37016C76.0231 8.05141 75.9211 7.78578 75.7171 7.57328C75.5131 7.36078 75.2283 7.25453 74.8628 7.25453H72.7973V9.48578Z" fill="#273852"/>
<path d="M81.3856 15.0002V11.2389L78.2618 5.82016H80.0532L82.1633 9.47941L84.2671 5.82016H86.0584L82.9411 11.2389V15.0002H81.3856Z" fill="#273852"/>
<path d="M137.842 15.0002V5.78418H140.815C141.266 5.78418 141.632 5.80125 141.913 5.83538C142.631 5.92071 143.25 6.17458 143.769 6.59698C144.292 7.01938 144.69 7.56125 144.962 8.22258C145.234 8.87965 145.37 9.60285 145.37 10.3922C145.37 11.1815 145.234 11.9068 144.962 12.5682C144.69 13.2252 144.292 13.765 143.769 14.1874C143.25 14.6098 142.631 14.8636 141.913 14.949C141.632 14.9831 141.266 15.0002 140.815 15.0002H137.842ZM140.815 13.3618C141.266 13.3618 141.598 13.3404 141.81 13.2978C142.193 13.221 142.512 13.0396 142.767 12.7538C143.027 12.4636 143.218 12.1138 143.342 11.7042C143.469 11.2903 143.533 10.853 143.533 10.3922C143.533 9.91858 143.467 9.47485 143.335 9.06098C143.208 8.64711 143.014 8.29938 142.755 8.01778C142.499 7.73618 142.185 7.55911 141.81 7.48658C141.598 7.44391 141.266 7.42258 140.815 7.42258H139.603V13.3618H140.815Z" fill="#273852"/>
<path d="M130.805 15.0002H129.07V5.78418H130.805V15.0002Z" fill="#273852"/>
<path d="M122.081 15.0002H116.39V5.78418H118.125V13.3746H122.081V15.0002Z" fill="#273852"/>
<path d="M155.797 15.1923C154.891 15.1923 154.102 14.9939 153.43 14.5971C152.758 14.196 152.241 13.6328 151.88 12.9075C151.522 12.1822 151.344 11.3438 151.344 10.3923C151.344 9.44082 151.522 8.60242 151.88 7.87709C152.241 7.15175 152.758 6.59068 153.43 6.19389C154.102 5.79282 154.891 5.59229 155.797 5.59229C156.703 5.59229 157.492 5.79282 158.164 6.19389C158.836 6.59068 159.35 7.15175 159.708 7.87709C160.069 8.60242 160.25 9.44082 160.25 10.3923C160.25 11.3438 160.069 12.1822 159.708 12.9075C159.35 13.6328 158.836 14.196 158.164 14.5971C157.492 14.9939 156.703 15.1923 155.797 15.1923ZM155.848 13.5539C156.409 13.5539 156.881 13.4238 157.264 13.1635C157.647 12.9032 157.934 12.5363 158.125 12.0627C158.317 11.5891 158.413 11.0323 158.413 10.3923C158.413 9.40242 158.187 8.62802 157.736 8.06908C157.285 7.51015 156.622 7.23068 155.746 7.23068C155.184 7.23068 154.712 7.36082 154.329 7.62109C153.947 7.88135 153.66 8.24829 153.468 8.72188C153.277 9.19548 153.181 9.75229 153.181 10.3923C153.181 11.3822 153.406 12.1566 153.857 12.7155C154.308 13.2744 154.972 13.5539 155.848 13.5539Z" fill="#273852"/>
<path fill-rule="evenodd" clip-rule="evenodd" d="M102.838 2.39209L106.785 8.59026L102.837 10.898L98.8905 8.59019L102.838 2.39209ZM100.099 8.2971L102.838 3.99637L105.577 8.29712L102.837 9.89841L100.099 8.2971Z" fill="#00A3FF"/>
<path d="M102.832 12.2603L98.2529 9.58306L98.1279 9.77941C96.7176 11.9939 97.0326 14.8942 98.8851 16.7522C101.065 18.9387 104.6 18.9387 106.78 16.7522C108.632 14.8942 108.947 11.9939 107.537 9.77941L107.412 9.58301L102.832 12.2603Z" fill="#00A3FF"/>
</svg>
